#N canvas 49 23 1193 722 10;
#X declare -stdpath ~/Documents/Pd;
#X obj 19 11 import mrpeach;
#X obj 33 86 unpackOSC;
#X obj 124 191 print;
#X obj 30 53 udpreceive 12345;
#X obj 21 122 routeOSC /1/push1;
#X obj 23 180 bng 83 250 50 0 empty empty empty 17 7 0 10 -262144 -1
-1;
#X obj 174 120 pdlua;
#X obj 352 98 declare -stdpath ~/Documents/Pd;
#X obj 182 20 loadbang;
#X msg 180 58 load ~/Documents/Pd/SequenceExternal/sequence.lua;
#X obj 190 241 bng 15 250 50 0 empty empty empty 17 7 0 10 -262144
-1 -1;
#X msg 258 267 choose;
#X text 302 295 kick;
#X text 515 292 hat;
#X text 699 291 snare;
#X text 870 291 clap;
#X msg 422 241 choose;
#X msg 611 242 choose;
#X msg 788 244 choose;
#X obj 244 356 * 125;
#X obj 234 423 delay;
#X obj 235 379 t b f;
#X msg 571 30 stop;
#X obj 167 380 r allstop;
#X obj 576 83 s allstop;
#X obj 232 530 bng 61 250 50 0 empty empty empty 17 7 0 10 -262144
-1 -1;
#X obj 209 495 gate;
#X obj 207 462 tgl 15 0 empty empty empty 17 7 0 10 -262144 -1 -1 1
1;
#X obj 182 426 r cue1;
#X obj 459 333 * 125;
#X obj 449 400 delay;
#X obj 450 356 t b f;
#X obj 382 357 r allstop;
#X obj 447 507 bng 61 250 50 0 empty empty empty 17 7 0 10 -262144
-1 -1;
#X obj 424 472 gate;
#X obj 422 439 tgl 15 0 empty empty empty 17 7 0 10 -262144 -1 -1 1
1;
#X obj 397 403 r cue2;
#X obj 638 332 * 125;
#X obj 628 399 delay;
#X obj 629 355 t b f;
#X obj 561 356 r allstop;
#X obj 626 506 bng 61 250 50 0 empty empty empty 17 7 0 10 -262144
-1 -1;
#X obj 603 471 gate;
#X obj 601 438 tgl 15 0 empty empty empty 17 7 0 10 -262144 -1 -1 1
1;
#X obj 576 402 r cue3;
#X obj 813 336 * 125;
#X obj 803 403 delay;
#X obj 804 359 t b f;
#X obj 736 360 r allstop;
#X obj 801 510 bng 61 250 50 0 empty empty empty 17 7 0 10 -262144
-1 -1;
#X obj 778 475 gate;
#X obj 776 442 tgl 15 0 empty empty empty 17 7 0 10 -262144 -1 -1 1
1;
#X obj 187 196 r cue0;
#X obj 261 175 r cue1;
#X obj 256 200 r cue2;
#X obj 751 406 r cue4;
#X obj 260 227 r cue3;
#X obj 260 248 r cue4;
#X obj 402 225 bng 15 250 50 0 empty empty empty 17 7 0 10 -262144
-1 -1;
#X obj 399 180 r cue0;
#X obj 609 207 bng 15 250 50 0 empty empty empty 17 7 0 10 -262144
-1 -1;
#X obj 606 162 r cue0;
#X obj 787 200 bng 15 250 50 0 empty empty empty 17 7 0 10 -262144
-1 -1;
#X obj 784 155 r cue0;
#X obj 448 162 r cue2;
#X obj 452 189 r cue3;
#X obj 452 210 r cue4;
#X obj 645 185 r cue3;
#X obj 645 206 r cue4;
#X obj 821 197 r cue4;
#X obj 47 301 counter 0 10;
#X obj 47 336 sprintf cue%d;
#X obj 38 387 symbol;
#X obj 119 238 print cue0;
#X msg 45 414 bang \; \$1 bang \;;
#X text 48 360 fancy cue parser;
#X text 829 50 cue 5 fades the velocities of the drums \, starts the
sample \, and starts a video?;
#X text 830 91 cue 6 fades the velocities back up and shows the sentences
again;
#X text 831 130 cue 7 abruptly ends everything;
#X obj 966 413 makenote;
#X msg 967 359 \$1 64 50;
#X floatatom 962 312 5 0 0 0 - - -, f 5;
#X obj 964 266 metro 100;
#X obj 1007 306 random 100;
#X obj 958 230 tgl 15 0 empty empty empty 17 7 0 10 -262144 -1 -1 0
1;
#X obj 1052 378 print;
#X obj 967 457 noteout 10;
#X obj 231 666 makenote;
#X obj 226 696 noteout 10;
#X obj 448 667 makenote;
#X obj 443 697 noteout 10;
#X obj 632 661 makenote;
#X obj 627 691 noteout 10;
#X obj 758 659 makenote;
#X obj 753 689 noteout 10;
#X obj 674 90 pdlua;
#X obj 621 15 loadbang;
#X msg 680 28 load ~/Documents/Pd/SequenceExternal/sequence.lua;
#X floatatom 63 524 5 0 0 0 - - -, f 5;
#X obj 889 555 packOSC;
#X obj 906 662 udpsend;
#X msg 899 635 disconnect;
#X msg 877 613 connect 127.0.0.1 9997;
#X obj 906 697 tgl 15 0 empty empty 1=connected 20 8 0 8 -4034 -257985
-1 1 1;
#X obj 191 294 sequence 2 8 4 8;
#X obj 591 290 sequence 3 5 3 6;
#X obj 762 290 sequence 3 5 6 10;
#X obj 332 563 packOSC;
#X obj 529 565 packOSC;
#X obj 711 557 packOSC;
#X msg 886 515 send /clap \$1;
#X msg 707 521 send /snare \$1;
#X msg 525 529 send /hat \$1;
#X msg 330 529 send /kick \$1;
#X obj 877 580 loadbang;
#X obj 325 485 f;
#X obj 537 460 f;
#X obj 672 452 f;
#X obj 876 453 f;
#X obj 399 293 sequence 2 4 7 10;
#N canvas 5 49 858 572 wavefolder 1;
#X obj 139 192 readsf~;
#X obj 260 488 dac~;
#X msg 123 137 open ./driving.wav;
#X obj 144 82 t b b;
#X msg 171 112 start;
#X obj 134 19 r cue5;
#X obj 143 56 bng 15 250 50 0 empty empty empty 17 7 0 10 -262144 -1
-1;
#X msg 224 101 stop;
#X obj 54 254 triangle~ 40;
#X obj 234 423 *~ 0.25;
#X obj 219 380 vd~ del;
#X obj 590 277 delwrite~ del 10000;
#X obj 413 309 *~;
#X obj 215 345 expr~ ( $v1 + 1) * 75;
#X obj 196 255 lop~ 25;
#X obj 335 23 bng 15 250 50 0 empty empty empty 17 7 0 10 -262144 -1
-1;
#X obj 315 69 r cue6;
#X obj 494 307 s clipsDone;
#X obj 707 76 adc~;
#X obj 648 172 *~ 0;
#X msg 575 122 0;
#X msg 631 121 1;
#X connect 0 0 14 0;
#X connect 0 1 17 0;
#X connect 2 0 0 0;
#X connect 3 0 4 0;
#X connect 3 1 2 0;
#X connect 4 0 0 0;
#X connect 5 0 15 0;
#X connect 6 0 3 0;
#X connect 7 0 0 0;
#X connect 9 0 1 0;
#X connect 9 0 1 1;
#X connect 10 0 9 0;
#X connect 12 0 1 1;
#X connect 12 0 1 0;
#X connect 13 0 10 0;
#X connect 14 0 13 0;
#X connect 14 0 12 0;
#X connect 15 0 6 0;
#X connect 15 0 21 0;
#X connect 16 0 7 0;
#X connect 16 0 20 0;
#X connect 18 0 19 0;
#X connect 18 1 19 0;
#X connect 19 0 11 0;
#X connect 20 0 19 1;
#X connect 21 0 19 1;
#X restore 1069 558 pd wavefolder;
#X obj 1104 622 r cue6;
#X obj 1057 689 packOSC;
#X msg 988 652 send /start;
#X obj 1036 618 r cue5;
#X msg 1082 652 send /stop;
#X obj 163 156 r clipsDone;
#X msg 7 302 5;
#X obj 232 613 f 64;
#X msg 233 638 36 \$1 50;
#X msg 62 603 16;
#X obj 115 635 s velocity;
#X obj 163 532 r cue6;
#X msg 120 567 64;
#X obj 275 611 r velocity;
#X obj 453 607 f 64;
#X obj 499 602 r velocity;
#X obj 111 538 r cue0;
#X obj 634 600 f 64;
#X msg 450 639 42 \$1 50;
#X msg 634 633 38 \$1 50;
#X obj 675 598 r velocity;
#X msg 760 631 39 \$1 50;
#X obj 753 597 f 64;
#X obj 803 597 r velocity;
#X obj 132 679 s allstop;
#X msg 154 439 0;
#X msg 368 438 0;
#X msg 557 437 0;
#X msg 704 395 0;
#X obj 193 638 bng 15 250 50 0 empty empty empty 17 7 0 10 -262144
-1 -1;
#X obj 151 589 r cue7;
#X connect 1 0 2 0;
#X connect 1 0 4 0;
#X connect 3 0 1 0;
#X connect 4 0 5 0;
#X connect 5 0 70 0;
#X connect 8 0 9 0;
#X connect 9 0 6 0;
#X connect 10 0 104 0;
#X connect 11 0 104 0;
#X connect 16 0 119 0;
#X connect 17 0 105 0;
#X connect 18 0 106 0;
#X connect 19 0 21 0;
#X connect 20 0 26 1;
#X connect 20 0 104 0;
#X connect 21 0 20 0;
#X connect 21 1 20 1;
#X connect 22 0 24 0;
#X connect 23 0 146 0;
#X connect 25 0 115 0;
#X connect 25 0 128 0;
#X connect 26 0 25 0;
#X connect 27 0 26 0;
#X connect 28 0 27 0;
#X connect 29 0 31 0;
#X connect 30 0 34 1;
#X connect 30 0 119 0;
#X connect 31 0 30 0;
#X connect 31 1 30 1;
#X connect 32 0 147 0;
#X connect 33 0 116 0;
#X connect 33 0 135 0;
#X connect 34 0 33 0;
#X connect 35 0 34 0;
#X connect 36 0 35 0;
#X connect 37 0 39 0;
#X connect 38 0 42 1;
#X connect 38 0 105 0;
#X connect 39 0 38 0;
#X connect 39 1 38 1;
#X connect 40 0 148 0;
#X connect 41 0 117 0;
#X connect 41 0 138 0;
#X connect 42 0 41 0;
#X connect 43 0 42 0;
#X connect 44 0 43 0;
#X connect 45 0 47 0;
#X connect 46 0 50 1;
#X connect 46 0 106 0;
#X connect 47 0 46 0;
#X connect 47 1 46 1;
#X connect 48 0 149 0;
#X connect 49 0 118 0;
#X connect 49 0 143 0;
#X connect 50 0 49 0;
#X connect 51 0 50 0;
#X connect 52 0 10 0;
#X connect 52 0 73 0;
#X connect 53 0 11 0;
#X connect 54 0 11 0;
#X connect 55 0 51 0;
#X connect 56 0 11 0;
#X connect 57 0 11 0;
#X connect 58 0 119 0;
#X connect 59 0 58 0;
#X connect 60 0 105 0;
#X connect 61 0 60 0;
#X connect 62 0 106 0;
#X connect 63 0 62 0;
#X connect 64 0 16 0;
#X connect 65 0 16 0;
#X connect 66 0 16 0;
#X connect 67 0 17 0;
#X connect 68 0 17 0;
#X connect 69 0 18 0;
#X connect 70 0 71 0;
#X connect 70 0 98 0;
#X connect 71 0 72 0;
#X connect 72 0 74 0;
#X connect 79 0 86 0;
#X connect 79 1 86 1;
#X connect 80 0 79 0;
#X connect 80 0 85 0;
#X connect 81 0 80 0;
#X connect 82 0 83 0;
#X connect 83 0 81 0;
#X connect 84 0 82 0;
#X connect 87 0 88 0;
#X connect 87 1 88 1;
#X connect 89 0 90 0;
#X connect 89 1 90 1;
#X connect 91 0 92 0;
#X connect 91 1 92 1;
#X connect 93 0 94 0;
#X connect 93 1 94 1;
#X connect 96 0 97 0;
#X connect 97 0 95 0;
#X connect 99 0 100 0;
#X connect 100 0 103 0;
#X connect 101 0 100 0;
#X connect 102 0 100 0;
#X connect 104 0 19 0;
#X connect 104 0 115 1;
#X connect 105 0 37 0;
#X connect 105 0 117 1;
#X connect 106 0 45 0;
#X connect 106 0 118 1;
#X connect 107 0 100 0;
#X connect 108 0 100 0;
#X connect 109 0 100 0;
#X connect 110 0 99 0;
#X connect 111 0 109 0;
#X connect 112 0 108 0;
#X connect 113 0 107 0;
#X connect 114 0 102 0;
#X connect 115 0 113 0;
#X connect 116 0 112 0;
#X connect 117 0 111 0;
#X connect 118 0 110 0;
#X connect 119 0 29 0;
#X connect 119 0 116 1;
#X connect 121 0 125 0;
#X connect 122 0 100 0;
#X connect 123 0 122 0;
#X connect 124 0 123 0;
#X connect 125 0 122 0;
#X connect 126 0 5 0;
#X connect 127 0 71 0;
#X connect 128 0 129 0;
#X connect 129 0 87 0;
#X connect 130 0 131 0;
#X connect 132 0 133 0;
#X connect 133 0 131 0;
#X connect 134 0 128 1;
#X connect 135 0 139 0;
#X connect 136 0 135 1;
#X connect 137 0 133 0;
#X connect 138 0 140 0;
#X connect 139 0 89 0;
#X connect 140 0 91 0;
#X connect 141 0 138 1;
#X connect 142 0 93 0;
#X connect 143 0 142 0;
#X connect 144 0 143 1;
#X connect 146 0 26 0;
#X connect 147 0 34 0;
#X connect 148 0 42 0;
#X connect 149 0 50 0;
#X connect 150 0 145 0;
#X connect 151 0 145 0;
