#N canvas 0 23 610 688 10;
#N canvas 608 156 436 532 kick 1;
#X obj 18 432 delay;
#X obj 28 376 f;
#X obj 30 335 * 62.5;
#X obj 20 403 t b f;
#X obj 25 470 bng 15 250 50 0 empty empty empty 17 7 0 10 -262144 -1
-1;
#X obj 216 146 loadbang;
#X obj 92 105 bng 15 250 50 0 empty empty empty 17 7 0 10 -262144 -1
-1;
#X obj 90 142 f 0;
#X obj 85 179 + 1;
#X obj 87 213 moses 8;
#X msg 127 237 0;
#X floatatom 22 240 5 0 0 0 - - -;
#X obj 22 268 text get kick-sequence;
#X obj 168 267 text define -k kick-sequence;
#A set 2 \; 3 \; 5 \; 3 \; 4 \; 3 \; 2 \; 2 \;;
#X msg 172 227 write kick.txt;
#X msg 211 186 read kick.txt;
#X obj 102 476 s kick;
#X obj 73 307 r eighth-ms;
#X obj 17 10 inlet;
#X obj 130 85 spigot 1;
#X msg 137 38 0;
#X msg 184 40 1;
#X obj 215 476 outlet;
#X obj 275 476 outlet;
#X obj 291 406 + 1;
#X obj 276 449 f 0;
#X obj 290 372 f;
#X text 331 501 index;
#X text 281 502 loop;
#X obj 335 476 outlet;
#X text 215 505 control;
#X obj 21 158 print;
#X obj 18 92 sel 0 1;
#X obj 27 136 bng 15 250 50 0 empty empty empty 17 7 0 10 -262144 -1
-1;
#X obj 21 55 route float bang;
#X obj 275 342 bng 15 250 50 0 empty empty empty 17 7 0 10 -262144
-1 -1;
#X floatatom 326 408 5 0 0 0 - - -;
#X connect 0 0 4 0;
#X connect 1 0 3 0;
#X connect 2 0 1 0;
#X connect 3 0 0 0;
#X connect 3 0 16 0;
#X connect 3 0 22 0;
#X connect 3 0 25 0;
#X connect 3 1 0 1;
#X connect 4 0 19 0;
#X connect 5 0 15 0;
#X connect 6 0 7 0;
#X connect 7 0 8 0;
#X connect 7 0 11 0;
#X connect 8 0 9 0;
#X connect 9 0 7 1;
#X connect 9 1 10 0;
#X connect 9 1 35 0;
#X connect 10 0 7 1;
#X connect 11 0 12 0;
#X connect 11 0 29 0;
#X connect 12 0 2 0;
#X connect 14 0 13 0;
#X connect 15 0 13 0;
#X connect 17 0 2 1;
#X connect 18 0 34 0;
#X connect 19 0 6 0;
#X connect 20 0 19 1;
#X connect 21 0 19 1;
#X connect 24 0 25 1;
#X connect 24 0 36 0;
#X connect 25 0 23 0;
#X connect 25 0 26 1;
#X connect 26 0 24 0;
#X connect 32 0 20 0;
#X connect 32 0 33 0;
#X connect 32 1 21 0;
#X connect 34 0 20 0;
#X connect 34 0 32 0;
#X connect 34 1 6 0;
#X connect 35 0 26 0;
#X restore 95 222 pd kick;
#X obj 403 209 s eighth-ms;
#X msg 400 161 62.5;
#X obj 403 132 loadbang;
#N canvas 639 124 436 532 snare 0;
#X obj 18 432 delay;
#X obj 28 376 f;
#X obj 30 335 * 62.5;
#X obj 20 403 t b f;
#X obj 25 470 bng 15 250 50 0 empty empty empty 17 7 0 10 -262144 -1
-1;
#X obj 216 146 loadbang;
#X obj 92 105 bng 15 250 50 0 empty empty empty 17 7 0 10 -262144 -1
-1;
#X obj 90 142 f 0;
#X obj 85 179 + 1;
#X msg 127 237 0;
#X floatatom 22 240 5 0 0 0 - - -;
#X obj 73 307 r eighth-ms;
#X obj 17 10 inlet;
#X obj 18 83 sel 0 1;
#X obj 130 85 spigot 1;
#X msg 137 38 0;
#X msg 184 40 1;
#X obj 215 476 outlet;
#X obj 87 213 moses 4;
#X obj 22 268 text get snare-sequence;
#X obj 168 267 text define -k snare-sequence;
#A set 2 \; 2 \; 2 \; 3 \;;
#X obj 147 476 s snare;
#X msg 211 186 read snare.txt;
#X msg 172 227 write snare.txt;
#X obj 275 476 outlet;
#X obj 350 401 + 1;
#X obj 276 449 f 0;
#X obj 290 372 f;
#X text 331 501 index;
#X text 281 502 loop;
#X obj 335 476 outlet;
#X obj 16 38 route float bang;
#X obj 268 343 bng 15 250 50 0 empty empty empty 17 7 0 10 -262144
-1 -1;
#X connect 0 0 4 0;
#X connect 1 0 3 0;
#X connect 2 0 1 0;
#X connect 3 0 0 0;
#X connect 3 0 17 0;
#X connect 3 0 21 0;
#X connect 3 0 26 0;
#X connect 3 1 0 1;
#X connect 4 0 14 0;
#X connect 5 0 22 0;
#X connect 6 0 7 0;
#X connect 7 0 8 0;
#X connect 7 0 10 0;
#X connect 8 0 18 0;
#X connect 9 0 7 1;
#X connect 10 0 19 0;
#X connect 10 0 30 0;
#X connect 11 0 2 1;
#X connect 12 0 31 0;
#X connect 13 0 15 0;
#X connect 13 1 16 0;
#X connect 14 0 6 0;
#X connect 15 0 14 1;
#X connect 16 0 14 1;
#X connect 18 0 7 1;
#X connect 18 1 9 0;
#X connect 18 1 32 0;
#X connect 19 0 2 0;
#X connect 22 0 20 0;
#X connect 23 0 20 0;
#X connect 25 0 27 1;
#X connect 25 0 26 1;
#X connect 26 0 27 1;
#X connect 26 0 24 0;
#X connect 27 0 25 0;
#X connect 31 0 13 0;
#X connect 31 1 6 0;
#X connect 32 0 27 0;
#X restore 162 225 pd snare;
#N canvas 639 124 436 532 hihat 1;
#X obj 18 432 delay;
#X obj 28 376 f;
#X obj 30 335 * 62.5;
#X obj 20 403 t b f;
#X obj 25 470 bng 15 250 50 0 empty empty empty 17 7 0 10 -262144 -1
-1;
#X obj 216 146 loadbang;
#X obj 92 105 bng 15 250 50 0 empty empty empty 17 7 0 10 -262144 -1
-1;
#X obj 90 142 f 0;
#X obj 85 179 + 1;
#X msg 127 237 0;
#X floatatom 22 240 5 0 0 0 - - -;
#X obj 73 307 r eighth-ms;
#X obj 17 10 inlet;
#X obj 17 77 sel 0 1;
#X obj 130 85 spigot 1;
#X msg 137 38 0;
#X msg 184 40 1;
#X obj 215 476 outlet;
#X msg 172 227 write hihat.txt;
#X msg 211 186 read hihat.txt;
#X obj 168 267 text define -k hihat-sequence;
#A set 2 \; 2 \; 2 \; 2 \; 2 \; 2 \; 3 \;;
#X obj 22 268 text get hihat-sequence;
#X obj 147 476 s hihat;
#X obj 87 213 moses 7;
#X obj 275 476 outlet;
#X obj 350 401 + 1;
#X obj 276 449 f 0;
#X obj 290 372 f;
#X text 331 501 index;
#X text 281 502 loop;
#X obj 335 476 outlet;
#X obj 15 52 route float bang;
#X obj 264 334 bng 15 250 50 0 empty empty empty 17 7 0 10 -262144
-1 -1;
#X connect 0 0 4 0;
#X connect 1 0 3 0;
#X connect 2 0 1 0;
#X connect 3 0 0 0;
#X connect 3 0 17 0;
#X connect 3 0 22 0;
#X connect 3 0 26 0;
#X connect 3 1 0 1;
#X connect 4 0 14 0;
#X connect 5 0 19 0;
#X connect 6 0 7 0;
#X connect 7 0 8 0;
#X connect 7 0 10 0;
#X connect 8 0 23 0;
#X connect 9 0 7 1;
#X connect 10 0 21 0;
#X connect 10 0 30 0;
#X connect 11 0 2 1;
#X connect 12 0 31 0;
#X connect 13 0 15 0;
#X connect 13 1 16 0;
#X connect 14 0 6 0;
#X connect 15 0 14 1;
#X connect 16 0 14 1;
#X connect 18 0 20 0;
#X connect 19 0 20 0;
#X connect 21 0 2 0;
#X connect 23 0 7 1;
#X connect 23 1 9 0;
#X connect 23 1 32 0;
#X connect 25 0 27 1;
#X connect 25 0 26 1;
#X connect 26 0 27 1;
#X connect 26 0 24 0;
#X connect 27 0 25 0;
#X connect 31 0 13 0;
#X connect 31 1 6 0;
#X connect 32 0 27 0;
#X restore 237 227 pd hihat;
#X floatatom 112 279 5 0 0 0 - - -;
#X floatatom 130 322 5 0 0 0 - - -;
#X obj 89 306 bng 15 250 50 0 empty empty empty 17 7 0 10 -262144 -1
-1;
#X obj 97 182 bng 15 250 50 0 empty empty empty 17 7 0 10 -262144 -1
-1;
#X msg 123 179 0;
#X msg 156 178 1;
#X floatatom 189 277 5 0 0 0 - - -;
#X floatatom 210 306 5 0 0 0 - - -;
#X obj 165 287 bng 15 250 50 0 empty empty empty 17 7 0 10 -262144
-1 -1;
#X floatatom 260 274 5 0 0 0 - - -;
#X floatatom 281 303 5 0 0 0 - - -;
#X obj 236 284 bng 15 250 50 0 empty empty empty 17 7 0 10 -262144
-1 -1;
#X obj 99 142 bng 15 250 50 0 empty empty empty 17 7 0 10 -262144 -1
-1;
#X obj 167 140 bng 15 250 50 0 empty empty empty 17 7 0 10 -262144
-1 -1;
#X obj 249 144 bng 15 250 50 0 empty empty empty 17 7 0 10 -262144
-1 -1;
#X connect 0 0 8 0;
#X connect 0 1 6 0;
#X connect 0 2 7 0;
#X connect 2 0 1 0;
#X connect 3 0 2 0;
#X connect 4 0 14 0;
#X connect 4 1 12 0;
#X connect 4 2 13 0;
#X connect 5 0 17 0;
#X connect 5 1 15 0;
#X connect 5 2 16 0;
#X connect 9 0 0 0;
#X connect 9 0 4 0;
#X connect 9 0 5 0;
#X connect 10 0 0 0;
#X connect 10 0 4 0;
#X connect 10 0 5 0;
#X connect 11 0 0 0;
#X connect 11 0 4 0;
#X connect 11 0 5 0;
#X connect 18 0 0 0;
#X connect 19 0 4 0;
#X connect 20 0 5 0;
